<svg width="900" height="400" viewBox="0 0 900 400" xmlns="http://www.w3.org/2000/svg" fill="none">
  <defs>
    <linearGradient id="sky" x1="0" y1="0" x2="0" y2="400" gradientUnits="userSpaceOnUse">
      <stop stop-color="#06010f"/><stop offset="0.35" stop-color="#0a0220"/><stop offset="0.7" stop-color="#1a0533"/><stop offset="1" stop-color="#06010f"/>
    </linearGradient>
    <linearGradient id="nameGrad" x1="0" y1="0" x2="520" y2="0" gradientUnits="userSpaceOnUse">
      <stop stop-color="#8426FF"/><stop offset="0.5" stop-color="#00D8F2"/><stop offset="1" stop-color="#00F273"/>
    </linearGradient>
    <radialGradient id="moonCore" cx="0.42" cy="0.4" r="0.65">
      <stop stop-color="#fdf6ff"/><stop offset="0.55" stop-color="#e6d4ff"/><stop offset="0.85" stop-color="#b08fe8"/><stop offset="1" stop-color="#8426FF"/>
    </radialGradient>
    <radialGradient id="moonHalo" cx="0.5" cy="0.5" r="0.5">
      <stop stop-color="#a25cff" stop-opacity="0.5"/><stop offset="0.5" stop-color="#8426FF" stop-opacity="0.2"/><stop offset="1" stop-color="#8426FF" stop-opacity="0"/>
    </radialGradient>

    <!-- head: symmetric vertical shading, violet→teal -->
    <linearGradient id="headGrad" x1="0.5" y1="0" x2="0.5" y2="1">
      <stop stop-color="#c77dff"/><stop offset="0.4" stop-color="#8426FF"/><stop offset="0.75" stop-color="#5a1aa8"/><stop offset="1" stop-color="#3a0d70"/>
    </linearGradient>
    <!-- snout front -->
    <linearGradient id="snoutGrad" x1="0.5" y1="0" x2="0.5" y2="1">
      <stop stop-color="#9d4edd"/><stop offset="0.6" stop-color="#6a1fb0"/><stop offset="1" stop-color="#4a1690"/>
    </linearGradient>
    <!-- teal crest/horn accents -->
    <linearGradient id="crestGrad" x1="0" y1="0" x2="0" y2="1">
      <stop stop-color="#3be8ff"/><stop offset="1" stop-color="#0a7fa8"/>
    </linearGradient>
    <linearGradient id="hornGrad" x1="0" y1="0" x2="1" y2="1">
      <stop stop-color="#f0e6ff"/><stop offset="0.5" stop-color="#c2a3f0"/><stop offset="1" stop-color="#5a3a90"/>
    </linearGradient>
    <!-- RED angry eye -->
    <radialGradient id="eyeGlowR" cx="0.5" cy="0.5" r="0.5">
      <stop stop-color="#fff0f0"/><stop offset="0.3" stop-color="#ff2d2d"/><stop offset="0.7" stop-color="#cc0000"/><stop offset="1" stop-color="#ff2d2d" stop-opacity="0"/>
    </radialGradient>
    <radialGradient id="eyeBallR" cx="0.4" cy="0.32" r="0.75">
      <stop stop-color="#ffe0e0"/><stop offset="0.35" stop-color="#ff3b3b"/><stop offset="0.75" stop-color="#b00000"/><stop offset="1" stop-color="#6a0000"/>
    </radialGradient>
    <!-- frost breath -->
    <linearGradient id="frost" x1="0" y1="0.5" x2="1" y2="0.5">
      <stop stop-color="#eaffff"/><stop offset="0.35" stop-color="#9fe8ff"/><stop offset="0.7" stop-color="#5cc8f0" stop-opacity="0.7"/><stop offset="1" stop-color="#5cc8f0" stop-opacity="0"/>
    </linearGradient>
    <radialGradient id="crackGlow" cx="0.5" cy="0.5" r="0.5">
      <stop stop-color="#ff6a2d"/><stop offset="1" stop-color="#ff6a2d" stop-opacity="0"/>
    </radialGradient>

    <!-- fish-scale textures -->
    <pattern id="scales" width="18" height="14" patternUnits="userSpaceOnUse">
      <path d="M0,7 a9,7 0 0,1 18,0 M-9,14 a9,7 0 0,1 18,0 M9,14 a9,7 0 0,1 18,0" fill="none" stroke="#2a0d5a" stroke-width="1.2" stroke-opacity="0.5"/>
    </pattern>
    <pattern id="scalesFine" width="12" height="10" patternUnits="userSpaceOnUse">
      <path d="M0,5 a6,5 0 0,1 12,0 M-6,10 a6,5 0 0,1 12,0 M6,10 a6,5 0 0,1 12,0" fill="none" stroke="#1a0540" stroke-width="1" stroke-opacity="0.45"/>
    </pattern>

    <filter id="soft"><feGaussianBlur stdDeviation="2.5" result="b"/><feMerge><feMergeNode in="b"/><feMergeNode in="SourceGraphic"/></feMerge></filter>
    <filter id="bigSoft" x="-80%" y="-80%" width="260%" height="260%"><feGaussianBlur stdDeviation="6" result="b"/><feMerge><feMergeNode in="b"/><feMergeNode in="SourceGraphic"/></feMerge></filter>
    <filter id="cloudBlur" x="-30%" y="-30%" width="160%" height="160%"><feGaussianBlur stdDeviation="9"/></filter>
    <filter id="frostBlur" x="-60%" y="-60%" width="220%" height="220%"><feGaussianBlur stdDeviation="3.5"/></filter>
    <filter id="smokeBlur" x="-60%" y="-60%" width="220%" height="220%"><feGaussianBlur stdDeviation="5"/></filter>
  </defs>

  <!-- ════ SKY ════ -->
  <rect width="900" height="400" rx="14" fill="url(#sky)"/>

  <!-- moon top-left -->
  <circle cx="135" cy="100" r="105" fill="url(#moonHalo)"/>
  <circle cx="135" cy="100" r="46" fill="url(#moonCore)" opacity="0.5"/>

  <!-- stars -->
  <g fill="#ffffff">
    <circle cx="300" cy="50" r="1.8"><animate attributeName="opacity" values="0.3;1;0.3" dur="2.4s" repeatCount="indefinite"/></circle>
    <circle cx="430" cy="40" r="2"><animate attributeName="opacity" values="1;0.2;1" dur="3.1s" repeatCount="indefinite"/></circle>
    <circle cx="180" cy="200" r="1.6"><animate attributeName="opacity" values="0.4;1;0.4" dur="2.7s" repeatCount="indefinite"/></circle>
    <circle cx="120" cy="240" r="2.2"><animate attributeName="opacity" values="1;0.3;1" dur="2.2s" repeatCount="indefinite"/></circle>
    <circle cx="250" cy="95" r="1.5"><animate attributeName="opacity" values="0.5;1;0.5" dur="3.4s" repeatCount="indefinite"/></circle>
    <circle cx="60" cy="170" r="1.7"><animate attributeName="opacity" values="1;0.4;1" dur="2.9s" repeatCount="indefinite"/></circle>
    <circle cx="380" cy="80" r="1.4"><animate attributeName="opacity" values="0.3;1;0.3" dur="2.5s" repeatCount="indefinite"/></circle>
    <circle cx="210" cy="270" r="1.5"><animate attributeName="opacity" values="1;0.3;1" dur="3.2s" repeatCount="indefinite"/></circle>
  </g>
  <g fill="#C77DFF">
    <circle cx="340" cy="120" r="1.4"><animate attributeName="opacity" values="0.4;1;0.4" dur="2.8s" repeatCount="indefinite"/></circle>
    <circle cx="80" cy="120" r="1.5"><animate attributeName="opacity" values="1;0.3;1" dur="3.5s" repeatCount="indefinite"/></circle>
    <circle cx="160" cy="290" r="1.3"><animate attributeName="opacity" values="0.5;1;0.5" dur="2.3s" repeatCount="indefinite"/></circle>
    <circle cx="280" cy="220" r="1.4"><animate attributeName="opacity" values="1;0.4;1" dur="3s" repeatCount="indefinite"/></circle>
  </g>
  <g fill="#00D8F2">
    <circle cx="220" cy="135" r="1.2"><animate attributeName="opacity" values="0.5;1;0.5" dur="3.3s" repeatCount="indefinite"/></circle>
    <circle cx="400" cy="160" r="1.1"><animate attributeName="opacity" values="1;0.3;1" dur="2.4s" repeatCount="indefinite"/></circle>
    <circle cx="100" cy="300" r="1.3"><animate attributeName="opacity" values="0.4;1;0.4" dur="2.9s" repeatCount="indefinite"/></circle>
  </g>
  <g fill="#ffffff" opacity="0.45">
    <circle cx="330" cy="75" r="0.7"/><circle cx="160" cy="160" r="0.7"/><circle cx="60" cy="250" r="0.7"/><circle cx="380" cy="220" r="0.7"/><circle cx="250" cy="320" r="0.7"/>
  </g>

  <!-- shooting star -->
  <g>
    <animateTransform attributeName="transform" type="translate" values="80,40; 380,200" dur="7s" repeatCount="indefinite"/>
    <line x1="0" y1="0" x2="40" y2="16" stroke="#9fe8ff" stroke-width="2" stroke-linecap="round" filter="url(#soft)">
      <animate attributeName="opacity" values="0;0;0;0;1;0" dur="7s" repeatCount="indefinite"/>
    </line>
  </g>

  <!-- clouds -->
  <g filter="url(#cloudBlur)" opacity="0.5">
    <g fill="#3a1a66"><ellipse cx="180" cy="320" rx="130" ry="34"/><ellipse cx="640" cy="330" rx="150" ry="36"/></g>
    <animateTransform attributeName="transform" type="translate" values="0,0; 28,0; 0,0" dur="22s" repeatCount="indefinite"/>
  </g>
  <g filter="url(#cloudBlur)" opacity="0.7">
    <g fill="#4a1f80"><ellipse cx="120" cy="358" rx="150" ry="38"/><ellipse cx="720" cy="362" rx="170" ry="40"/><ellipse cx="430" cy="374" rx="140" ry="34"/></g>
    <animateTransform attributeName="transform" type="translate" values="0,0; -22,0; 0,0" dur="18s" repeatCount="indefinite"/>
  </g>
  <g filter="url(#cloudBlur)" opacity="0.88">
    <g fill="#5a2a96"><ellipse cx="90" cy="394" rx="170" ry="38"/><ellipse cx="380" cy="398" rx="180" ry="42"/><ellipse cx="680" cy="394" rx="190" ry="42"/></g>
    <animateTransform attributeName="transform" type="translate" values="0,0; 16,0; 0,0" dur="14s" repeatCount="indefinite"/>
  </g>

  <!-- ════ TITLE ════ -->
  <text x="40" y="150" font-family="monospace" font-weight="bold" font-size="48" fill="url(#nameGrad)" filter="url(#soft)" letter-spacing="2">
    NIKAN EIDI<animate attributeName="opacity" values="0;1" dur="1s" fill="freeze"/>
  </text>
  <text x="44" y="176" font-family="monospace" font-size="11.5" fill="#00D8F2" letter-spacing="1.3">
    SYSTEMS ARCHITECT · ML ENGINEER · TERMINAL CRAFTSMAN<animate attributeName="opacity" values="0;0;1" dur="1.8s" fill="freeze"/>
  </text>
  <g font-family="monospace" font-size="12.5">
    <text x="44" y="210" fill="#00F273" opacity="0">[SYS] forge core ........ [OK]<animate attributeName="opacity" values="0;1" dur="0.3s" begin="1.8s" fill="freeze"/></text>
    <text x="44" y="231" fill="#F0F5FC" opacity="0">root@nikan:~$ <tspan fill="#C77DFF">_</tspan><animate attributeName="opacity" values="0;1" dur="0.3s" begin="2.2s" fill="freeze"/></text>
  </g>
  <rect x="166" y="221" width="9" height="13" fill="#00F273" opacity="0"><animate attributeName="opacity" values="0;0;1;1;0;0;1;1" dur="1.6s" begin="2.4s" repeatCount="indefinite"/></rect>

  <!-- ════════════ FRONT-FACING ANGRY DRAGON HEAD ════════════ -->
  <!-- symmetric, centered, shifted right, zoomed in large -->
  <g transform="translate(665,205)">
  <g>
    <animateTransform attributeName="transform" type="translate" values="0,0; 0,-5; 0,0" dur="5s" repeatCount="indefinite"/>

    <!-- ═══ FROST BREATH (downward-left from muzzle) ═══ -->
    <g filter="url(#frostBlur)" opacity="0.55">
      <path d="M-30,96 C-70,106 -110,121 -150,116 C-120,126 -85,126 -55,118 C-90,130 -125,144 -160,176 C-115,158 -75,142 -40,124 Z" fill="url(#frost)">
        <animate attributeName="opacity" values="0.3;0.7;0.3" dur="3s" repeatCount="indefinite"/>
      </path>
      <path d="M-25,106 C-60,118 -98,134 -135,166 C-100,150 -62,134 -30,118 Z" fill="url(#frost)" opacity="0.6"><animate attributeName="opacity" values="0.2;0.6;0.2" dur="3.5s" begin="0.5s" repeatCount="indefinite"/></path>
    </g>
    <g fill="#eaffff">
      <circle cx="-90" cy="126" r="2"><animate attributeName="opacity" values="0;1;0" dur="2s" repeatCount="indefinite"/><animate attributeName="cx" values="-60;-130;-60" dur="3s" repeatCount="indefinite"/><animate attributeName="cy" values="118;146;118" dur="3s" repeatCount="indefinite"/></circle>
      <circle cx="-70" cy="136" r="1.5"><animate attributeName="opacity" values="0;1;0" dur="2.4s" begin="0.6s" repeatCount="indefinite"/><animate attributeName="cx" values="-50;-115;-50" dur="3.4s" begin="0.6s" repeatCount="indefinite"/><animate attributeName="cy" values="126;158;126" dur="3.4s" begin="0.6s" repeatCount="indefinite"/></circle>
      <circle cx="-100" cy="116" r="1.2" fill="#9fe8ff"><animate attributeName="opacity" values="0;0.9;0" dur="2.8s" begin="1s" repeatCount="indefinite"/><animate attributeName="cx" values="-70;-140;-70" dur="3.8s" begin="1s" repeatCount="indefinite"/></circle>
    </g>

    <!-- ═══ BACK HORNS (symmetric pair, swept up & out) ═══ -->
    <!-- left horn -->
    <g fill="url(#hornGrad)" stroke="#5a3a90" stroke-width="1" stroke-opacity="0.4">
      <path d="M-60,-70 C-90,-110 -120,-140 -160,-150 C-150,-120 -130,-92 -100,-70 C-115,-96 -120,-126 -112,-156 C-92,-130 -74,-98 -64,-64 Z"/>
      <g stroke="#7a5ab0" stroke-width="2" stroke-opacity="0.6" fill="none">
        <path d="M-72,-72 C-100,-104 -118,-130 -130,-148"/>
      </g>
    </g>
    <!-- right horn (mirror) -->
    <g fill="url(#hornGrad)" stroke="#5a3a90" stroke-width="1" stroke-opacity="0.4">
      <path d="M60,-70 C90,-110 120,-140 160,-150 C150,-120 130,-92 100,-70 C115,-96 120,-126 112,-156 C92,-130 74,-98 64,-64 Z"/>
      <g stroke="#7a5ab0" stroke-width="2" stroke-opacity="0.6" fill="none">
        <path d="M72,-72 C100,-104 118,-130 130,-148"/>
      </g>
    </g>
    <!-- horn glow tips -->
    <circle cx="-159" cy="-150" r="4" fill="#00F273" filter="url(#soft)"><animate attributeName="opacity" values="1;0.5;1" dur="2s" repeatCount="indefinite"/></circle>
    <circle cx="159" cy="-150" r="4" fill="#00F273" filter="url(#soft)"><animate attributeName="opacity" values="1;0.5;1" dur="2s" begin="0.5s" repeatCount="indefinite"/></circle>

    <!-- ═══ EAR FRILLS / SECONDARY HORNS (teal) ═══ -->
    <g fill="url(#crestGrad)">
      <path d="M-95,-30 C-130,-44 -160,-44 -185,-30 C-160,-26 -135,-16 -120,0 C-128,-18 -120,-34 -108,-40 Z"/>
      <path d="M95,-30 C130,-44 160,-44 185,-30 C160,-26 135,-16 120,0 C128,-18 120,-34 108,-40 Z"/>
    </g>
    <g fill="#00F273" opacity="0.45">
      <path d="M-95,-30 C-126,-42 -152,-42 -174,-30 C-152,-27 -130,-18 -116,-4 Z"/>
      <path d="M95,-30 C126,-42 152,-42 174,-30 C152,-27 130,-18 116,-4 Z"/>
    </g>

    <!-- ═══ CRANIUM / TOP OF SKULL (angular, tapered — not circular) ═══ -->
    <path d="M-72,-58 C-52,-84 -26,-98 0,-98 C26,-98 52,-84 72,-58 C92,-32 102,-2 96,28 C84,46 50,52 0,52 C-50,52 -84,46 -96,28 C-102,-2 -92,-32 -72,-58 Z" fill="url(#headGrad)"/>
    <path d="M-72,-58 C-52,-84 -26,-98 0,-98 C26,-98 52,-84 72,-58 C92,-32 102,-2 96,28 C84,46 50,52 0,52 C-50,52 -84,46 -96,28 C-102,-2 -92,-32 -72,-58 Z" fill="url(#scales)"/>

    <!-- ═══ BROW RIDGE (heavy, V-shaped furrow — ANGRY) ═══ -->
    <path d="M-96,-20 C-70,-36 -44,-38 -22,-26 C-14,-18 -10,-8 -8,2 C-30,-8 -56,-10 -78,-2 C-88,-10 -92,-15 -96,-20 Z" fill="#2a0850"/>
    <path d="M96,-20 C70,-36 44,-38 22,-26 C14,-18 10,-8 8,2 C30,-8 56,-10 78,-2 C88,-10 92,-15 96,-20 Z" fill="#2a0850"/>
    <!-- center furrow wrinkle (angry knot) -->
    <path d="M-8,2 C-4,-6 4,-6 8,2 C4,-2 -4,-2 -8,2 Z" fill="#1a0228"/>
    <g stroke="#1a0228" stroke-width="2" opacity="0.5" fill="none">
      <path d="M-6,-4 l-3,-10"/><path d="M6,-4 l3,-10"/>
    </g>

    <!-- ═══ BROW SPIKES ═══ -->
    <g fill="url(#crestGrad)">
      <path d="M-78,-22 l-8,-18 l-2,16 Z"/><path d="M-54,-30 l-4,-18 l-6,15 Z"/>
      <path d="M78,-22 l8,-18 l2,16 Z"/><path d="M54,-30 l4,-18 l6,15 Z"/>
    </g>

    <!-- ═══ EYES (both, RED, sharp angled — INTENSE) ═══ -->
    <!-- glow halos -->
    <circle cx="-50" cy="6" r="26" fill="url(#eyeGlowR)"/>
    <circle cx="50" cy="6" r="26" fill="url(#eyeGlowR)"/>
    <!-- angled sockets (slanted inward = angry) -->
    <path d="M-78,-2 C-66,-12 -44,-12 -28,0 C-24,8 -28,20 -44,24 C-62,26 -76,18 -80,6 C-80,2 -80,0 -78,-2 Z" fill="#1a0228"/>
    <path d="M78,-2 C66,-12 44,-12 28,0 C24,8 28,20 44,24 C62,26 76,18 80,6 C80,2 80,0 78,-2 Z" fill="#1a0228"/>
    <!-- eyeballs -->
    <ellipse cx="-52" cy="8" rx="17" ry="14" fill="url(#eyeBallR)">
      <animate attributeName="ry" values="14;14;2;14" dur="5s" keyTimes="0;0.88;0.92;0.96" repeatCount="indefinite"/>
    </ellipse>
    <ellipse cx="52" cy="8" rx="17" ry="14" fill="url(#eyeBallR)">
      <animate attributeName="ry" values="14;14;2;14" dur="5s" keyTimes="0;0.88;0.92;0.96" repeatCount="indefinite"/>
    </ellipse>
    <!-- vertical slit pupils -->
    <ellipse cx="-52" cy="8" rx="3.5" ry="11" fill="#1a0000"/>
    <ellipse cx="52" cy="8" rx="3.5" ry="11" fill="#1a0000"/>
    <!-- glints -->
    <circle cx="-56" cy="3" r="3" fill="#fff0f0" opacity="0.95"/>
    <circle cx="48" cy="3" r="3" fill="#fff0f0" opacity="0.95"/>
    <!-- heavy angry upper lids -->
    <path d="M-80,-4 C-66,-16 -42,-16 -26,-4 C-44,-12 -64,-12 -80,-4 Z" fill="#3a0d70"/>
    <path d="M80,-4 C66,-16 42,-16 26,-4 C44,-12 64,-12 80,-4 Z" fill="#3a0d70"/>

    <!-- ═══ SNOUT BRIDGE → elongated MUZZLE ═══ -->
    <path d="M-28,4 C-16,-6 16,-6 28,4 C34,26 36,52 32,76 C28,96 16,108 0,108 C-16,108 -28,96 -32,76 C-36,52 -34,26 -28,4 Z" fill="url(#snoutGrad)"/>
    <path d="M-28,4 C-16,-6 16,-6 28,4 C34,26 36,52 32,76 C28,96 16,108 0,108 C-16,108 -28,96 -32,76 C-36,52 -34,26 -28,4 Z" fill="url(#scalesFine)"/>
    <!-- muzzle bridge highlight -->
    <path d="M-10,8 C-4,4 4,4 10,8 C13,30 12,54 8,76 C4,58 0,32 -2,10 Z" fill="#b06bff" opacity="0.35"/>
    <!-- muzzle side shading -->
    <path d="M-28,30 C-30,52 -28,74 -20,92 C-26,72 -28,50 -26,30 Z" fill="#4a1690" opacity="0.45"/>
    <path d="M28,30 C30,52 28,74 20,92 C26,72 28,50 26,30 Z" fill="#4a1690" opacity="0.45"/>

    <!-- ═══ NOSTRILS (flared, angry, on muzzle) ═══ -->
    <ellipse cx="-13" cy="86" rx="6" ry="4.5" fill="#1a0228" transform="rotate(20 -13 86)"/>
    <ellipse cx="13" cy="86" rx="6" ry="4.5" fill="#1a0228" transform="rotate(-20 13 86)"/>
    <circle cx="-14" cy="88" r="2" fill="#5cc8f0" opacity="0.7"><animate attributeName="opacity" values="0.4;0.9;0.4" dur="2s" repeatCount="indefinite"/></circle>
    <circle cx="14" cy="88" r="2" fill="#5cc8f0" opacity="0.7"><animate attributeName="opacity" values="0.4;0.9;0.4" dur="2s" begin="0.3s" repeatCount="indefinite"/></circle>

    <!-- ═══ CHEEKS / JOWLS (with scale flecks) ═══ -->
    <path d="M-100,38 C-94,60 -76,82 -48,94 C-28,102 -8,102 0,100 C-22,94 -46,80 -62,60 C-76,48 -90,40 -100,38 Z" fill="url(#snoutGrad)"/>
    <path d="M100,38 C94,60 76,82 48,94 C28,102 8,102 0,100 C22,94 46,80 62,60 C76,48 90,40 100,38 Z" fill="url(#snoutGrad)"/>
    <path d="M-100,38 C-94,60 -76,82 -48,94 C-28,102 -8,102 0,100 C-22,94 -46,80 -62,60 C-76,48 -90,40 -100,38 Z" fill="url(#scales)"/>
    <path d="M100,38 C94,60 76,82 48,94 C28,102 8,102 0,100 C22,94 46,80 62,60 C76,48 90,40 100,38 Z" fill="url(#scales)"/>

    <!-- ═══ OPEN SNARLING MOUTH ═══ -->
    <path d="M-40,90 C-22,108 -10,114 0,114 C10,114 22,108 40,90 C28,104 14,112 0,112 C-14,112 -28,104 -40,90 Z" fill="#1a0228"/>
    <path d="M-32,92 C-16,104 -6,108 0,108 C6,108 16,104 32,92 C20,102 8,106 0,106 C-8,106 -20,102 -32,92 Z" fill="#0a1a2a"/>
    <path d="M-24,94 C-12,102 -4,104 0,104 C4,104 12,102 24,94 C12,100 4,102 0,102 Z" fill="#5cc8f0" opacity="0.2"><animate attributeName="opacity" values="0.1;0.3;0.1" dur="2s" repeatCount="indefinite"/></path>

    <!-- ═══ BARED FANGS (sharp, top + bottom) ═══ -->
    <g fill="#fff7e0">
      <path d="M-40,90 l-2,17 l9,-13 Z"/>
      <path d="M-25,98 l0,16 l8,-13 Z"/>
      <path d="M-11,102 l1,14 l6,-12 Z"/>
      <path d="M11,102 l-1,14 l-6,-12 Z"/>
      <path d="M25,98 l0,16 l-8,-13 Z"/>
      <path d="M40,90 l2,17 l-9,-13 Z"/>
      <path d="M-28,114 l-1,-13 l8,10 Z"/>
      <path d="M-11,116 l0,-12 l7,10 Z"/>
      <path d="M11,116 l0,-12 l-7,10 Z"/>
      <path d="M28,114 l1,-13 l-8,10 Z"/>
    </g>

    <!-- ═══ CHIN / LOWER JAW ═══ -->
    <path d="M-28,112 C-15,122 -4,124 0,124 C4,124 15,122 28,112 C19,122 9,126 0,126 C-9,126 -19,122 -28,112 Z" fill="#3a0d70"/>
    <path d="M-28,112 C-15,122 -4,124 0,124 C4,124 15,122 28,112 C19,122 9,126 0,126 C-9,126 -19,122 -28,112 Z" fill="url(#scalesFine)"/>
    <g fill="url(#crestGrad)">
      <path d="M-13,124 l-4,22 l8,-15 Z"/><path d="M13,124 l4,22 l-8,-15 Z"/>
    </g>

    <!-- ═══ GLOWING CRACKS (molten orange across scales) ═══ -->
    <g stroke="#ff6a2d" stroke-width="2" stroke-linecap="round" fill="none" filter="url(#soft)">
      <path d="M-70,-50 l8,12 l-4,10 l10,8"><animate attributeName="opacity" values="0.6;1;0.6" dur="2.5s" repeatCount="indefinite"/></path>
      <path d="M66,-46 l-6,14 l6,8 l-8,10"><animate attributeName="opacity" values="1;0.5;1" dur="3s" repeatCount="indefinite"/></path>
      <path d="M-44,44 l6,10 l-4,8"><animate attributeName="opacity" values="0.7;1;0.7" dur="2.2s" repeatCount="indefinite"/></path>
      <path d="M46,46 l-5,10 l5,8"><animate attributeName="opacity" values="1;0.6;1" dur="2.8s" repeatCount="indefinite"/></path>
      <path d="M0,-70 l-5,12 l5,8"><animate attributeName="opacity" values="0.6;1;0.6" dur="3.2s" repeatCount="indefinite"/></path>
    </g>
    <!-- crack glow nodes -->
    <g fill="url(#crackGlow)">
      <circle cx="-62" cy="-38" r="8"><animate attributeName="opacity" values="0.5;1;0.5" dur="2.5s" repeatCount="indefinite"/></circle>
      <circle cx="60" cy="-32" r="8"><animate attributeName="opacity" values="1;0.5;1" dur="3s" repeatCount="indefinite"/></circle>
      <circle cx="0" cy="-58" r="6"><animate attributeName="opacity" values="0.6;1;0.6" dur="3.2s" repeatCount="indefinite"/></circle>
    </g>

    <!-- jade scale flecks -->
    <g fill="#00F273" opacity="0.55">
      <circle cx="-80" cy="0" r="2.5"/><circle cx="80" cy="0" r="2.5"/><circle cx="-30" cy="40" r="2"/><circle cx="30" cy="40" r="2"/><circle cx="0" cy="-80" r="2"/>
    </g>
  </g>
  </g>

  <rect x="1" y="1" width="898" height="398" rx="14" fill="none" stroke="#8426FF" stroke-opacity="0.35" stroke-width="1.5"/>
</svg>
